<svg width="33" height="31" viewBox="0 0 33 31" fill="none" xmlns="http://www.w3.org/2000/svg">
<path d="M6.01013 24.8C6.09263 24.8 6.17513 24.7923 6.25763 24.7806L13.1959 23.6375C13.2784 23.622 13.3568 23.5871 13.4145 23.529L30.9004 7.10287C30.9386 7.06703 30.969 7.02444 30.9897 6.97757C31.0104 6.93069 31.021 6.88044 31.021 6.82969C31.021 6.77894 31.0104 6.72868 30.9897 6.68181C30.969 6.63493 30.9386 6.59235 30.9004 6.5565L24.0446 0.112375C23.9663 0.0387501 23.8631 0 23.7518 0C23.6404 0 23.5373 0.0387501 23.4589 0.112375L5.973 16.5385C5.91112 16.5966 5.874 16.6664 5.8575 16.7439L4.64063 23.2616C4.6005 23.4692 4.61484 23.6829 4.6824 23.8841C4.74996 24.0853 4.86871 24.268 5.02837 24.4164C5.30062 24.6644 5.643 24.8 6.01013 24.8V24.8ZM8.79038 18.042L23.7518 3.99125L26.7754 6.83162L11.814 20.8824L8.14688 21.4907L8.79038 18.042V18.042ZM31.68 28.055H1.32C0.589875 28.055 0 28.6091 0 29.295V30.69C0 30.8605 0.1485 31 0.33 31H32.67C32.8515 31 33 30.8605 33 30.69V29.295C33 28.6091 32.4101 28.055 31.68 28.055Z" fill="url(#paint0_linear_68_68)"/>
<defs>
<linearGradient id="paint0_linear_68_68" x1="16.5" y1="0" x2="16.5" y2="31" gradientUnits="userSpaceOnUse">
<stop stop-color="#FCC400"/>
<stop offset="1" stop-color="#FFA800"/>
</linearGradient>
</defs>
</svg>
