<svg width="41" height="41" viewBox="0 0 41 41" fill="none" xmlns="http://www.w3.org/2000/svg">
<path d="M30.9096 38.7223H10.0907C9.65246 38.712 9.22055 38.6154 8.81964 38.438C8.41873 38.2607 8.05669 38.0061 7.7542 37.6888C7.45172 37.3715 7.21472 36.9978 7.05674 36.5888C6.89876 36.1799 6.8229 35.7439 6.83349 35.3056V12.7898H9.11127V35.3056C9.1004 35.4448 9.11715 35.5848 9.16055 35.7174C9.20395 35.8501 9.27315 35.9729 9.36418 36.0787C9.4552 36.1846 9.56625 36.2714 9.69093 36.3342C9.81562 36.3969 9.95148 36.4344 10.0907 36.4445H30.9096C31.0488 36.4344 31.1847 36.3969 31.3094 36.3342C31.4341 36.2714 31.5451 36.1846 31.6361 36.0787C31.7272 35.9729 31.7964 35.8501 31.8398 35.7174C31.8832 35.5848 31.8999 35.4448 31.889 35.3056V12.7898H34.1668V35.3056C34.1774 35.7439 34.1016 36.1799 33.9436 36.5888C33.7856 36.9978 33.5486 37.3715 33.2461 37.6888C32.9436 38.0061 32.5816 38.2607 32.1807 38.438C31.7798 38.6154 31.3479 38.712 30.9096 38.7223V38.7223Z" fill="url(#paint0_linear_66_2)"/>
<path d="M35.0551 10.2499H5.69455C5.3925 10.2499 5.10282 10.13 4.88924 9.91637C4.67565 9.70279 4.55566 9.41311 4.55566 9.11106C4.55566 8.809 4.67565 8.51932 4.88924 8.30574C5.10282 8.09216 5.3925 7.97217 5.69455 7.97217H35.0551C35.3572 7.97217 35.6468 8.09216 35.8604 8.30574C36.074 8.51932 36.194 8.809 36.194 9.11106C36.194 9.41311 36.074 9.70279 35.8604 9.91637C35.6468 10.13 35.3572 10.2499 35.0551 10.2499Z" fill="url(#paint1_linear_66_2)"/>
<path d="M23.9165 14.8057H26.1943V31.889H23.9165V14.8057Z" fill="url(#paint2_linear_66_2)"/>
<path d="M14.8057 14.8057H17.0834V31.889H14.8057V14.8057Z" fill="url(#paint3_linear_66_2)"/>
<path d="M26.1946 6.67394H24.0307V4.55561H16.9696V6.67394H14.8057V4.55561C14.8049 3.97073 15.0292 3.40798 15.4321 2.98394C15.8349 2.5599 16.3854 2.30708 16.9696 2.27783H24.0307C24.6148 2.30708 25.1653 2.5599 25.5682 2.98394C25.971 3.40798 26.1953 3.97073 26.1946 4.55561V6.67394Z" fill="url(#paint4_linear_66_2)"/>
<defs>
<linearGradient id="paint0_linear_66_2" x1="20.5002" y1="12.7898" x2="20.5002" y2="38.7223" gradientUnits="userSpaceOnUse">
<stop offset="0.0416667" stop-color="#FA610B"/>
<stop offset="0.552083" stop-color="#F70101"/>
</linearGradient>
<linearGradient id="paint1_linear_66_2" x1="20.3748" y1="7.97217" x2="20.3748" y2="10.2499" gradientUnits="userSpaceOnUse">
<stop offset="0.0416667" stop-color="#FA610B"/>
<stop offset="0.552083" stop-color="#F70101"/>
</linearGradient>
<linearGradient id="paint2_linear_66_2" x1="25.0554" y1="14.8057" x2="25.0554" y2="31.889" gradientUnits="userSpaceOnUse">
<stop offset="0.0416667" stop-color="#FA610B"/>
<stop offset="0.552083" stop-color="#F70101"/>
</linearGradient>
<linearGradient id="paint3_linear_66_2" x1="15.9446" y1="14.8057" x2="15.9446" y2="31.889" gradientUnits="userSpaceOnUse">
<stop offset="0.0416667" stop-color="#FA610B"/>
<stop offset="0.552083" stop-color="#F70101"/>
</linearGradient>
<linearGradient id="paint4_linear_66_2" x1="20.5001" y1="2.27783" x2="20.5001" y2="6.67394" gradientUnits="userSpaceOnUse">
<stop offset="0.0416667" stop-color="#FA610B"/>
<stop offset="0.552083" stop-color="#F70101"/>
</linearGradient>
</defs>
</svg>
