<svg width="41" height="41" viewBox="0 0 41 41" fill="none" xmlns="http://www.w3.org/2000/svg">
<path d="M25.1638 22.7379C27.0942 20.09 27.9484 16.6221 26.8379 12.9321C25.6763 9.1225 22.4475 6.13292 18.5525 5.34708C16.7389 4.96631 14.8589 5.044 13.0829 5.57312C11.3068 6.10225 9.69083 7.06609 8.38128 8.37733C7.07173 9.68858 6.10998 11.3058 5.58316 13.0825C5.05634 14.8593 4.98108 16.7393 5.3642 18.5525C6.15003 22.4646 9.13962 25.6933 12.9492 26.8379C16.6392 27.9483 20.1071 27.0942 22.755 25.1638L32.2534 34.6621C32.5728 34.9815 33.006 35.161 33.4577 35.161C33.9095 35.161 34.3427 34.9815 34.6621 34.6621C34.9815 34.3427 35.161 33.9094 35.161 33.4577C35.161 33.006 34.9815 32.5728 34.6621 32.2533L25.1638 22.7379ZM16.2292 23.9167C11.9755 23.9167 8.5417 20.4829 8.5417 16.2292C8.5417 11.9754 11.9755 8.54167 16.2292 8.54167C20.483 8.54167 23.9167 11.9754 23.9167 16.2292C23.9167 20.4829 20.483 23.9167 16.2292 23.9167Z" fill="url(#paint0_linear_10_206)"/>
<path d="M17.5787 14.4183L16.2291 10.25L14.8795 14.4183H10.677L14.1108 17.1346L12.7953 21.3542L16.2291 18.7404L19.6628 21.3542L18.3474 17.1346L21.7812 14.4183H17.5787Z" fill="url(#paint1_linear_10_206)"/>
<defs>
<linearGradient id="paint0_linear_10_206" x1="20.1423" y1="5.10939" x2="20.1423" y2="35.161" gradientUnits="userSpaceOnUse">
<stop stop-color="#2400FF"/>
<stop offset="1" stop-color="#780DE2"/>
</linearGradient>
<linearGradient id="paint1_linear_10_206" x1="16.2291" y1="10.25" x2="16.2291" y2="21.3542" gradientUnits="userSpaceOnUse">
<stop stop-color="#2400FF"/>
<stop offset="1" stop-color="#780DE2"/>
</linearGradient>
</defs>
</svg>
