<svg width="40" height="40" viewBox="0 0 40 40" fill="none" xmlns="http://www.w3.org/2000/svg">
<path d="M16.918 25.6914C17.033 25.8519 17.1845 25.9827 17.3601 26.0729C17.5357 26.1631 17.7303 26.2101 17.9277 26.2101C18.1252 26.2101 18.3197 26.1631 18.4953 26.0729C18.671 25.9827 18.8225 25.8519 18.9375 25.6914L27.1641 14.2852C27.3125 14.0781 27.1641 13.7891 26.9102 13.7891H25.0781C24.6797 13.7891 24.3008 13.9805 24.0664 14.3086L17.9297 22.8242L15.1484 18.9648C14.9141 18.6406 14.5391 18.4453 14.1367 18.4453H12.3047C12.0508 18.4453 11.9024 18.7344 12.0508 18.9414L16.918 25.6914V25.6914Z" fill="url(#paint0_linear_68_69)"/>
<path d="M34.375 4.375H5.625C4.93359 4.375 4.375 4.93359 4.375 5.625V34.375C4.375 35.0664 4.93359 35.625 5.625 35.625H34.375C35.0664 35.625 35.625 35.0664 35.625 34.375V5.625C35.625 4.93359 35.0664 4.375 34.375 4.375ZM32.8125 32.8125H7.1875V7.1875H32.8125V32.8125Z" fill="url(#paint1_linear_68_69)"/>
<defs>
<linearGradient id="paint0_linear_68_69" x1="19.6074" y1="13.7891" x2="19.6074" y2="26.2101" gradientUnits="userSpaceOnUse">
<stop stop-color="#049346"/>
<stop offset="1" stop-color="#35BB2D"/>
</linearGradient>
<linearGradient id="paint1_linear_68_69" x1="20" y1="4.375" x2="20" y2="35.625" gradientUnits="userSpaceOnUse">
<stop stop-color="#049346"/>
<stop offset="1" stop-color="#35BB2D"/>
</linearGradient>
</defs>
</svg>
