<svg width="897" height="748" viewBox="0 0 897 748" fill="none" xmlns="http://www.w3.org/2000/svg">
<path d="M896 275.4L872.3 234C871.235 232.175 869.49 230.846 867.448 230.302C865.406 229.759 863.232 230.046 861.4 231.1L810.7 260.7L732.4 44.5001C728.266 31.5995 720.139 20.3465 709.193 12.3659C698.246 4.38525 685.047 0.0899307 671.5 0.100116H238.2C203.5 0.100116 172.7 22.5001 162 55.6001L87.4002 260.8L36.6002 231.2C34.7687 230.146 32.5944 229.859 30.5522 230.402C28.5099 230.946 26.7656 232.275 25.7002 234.1L2.00017 275.4C-0.199826 279.2 1.10018 284 4.90018 286.2L65.3002 321.4L50.8002 361.4C49.6002 364.6 49.0002 368 49.0002 371.4V719.6C49.0002 735.3 60.8002 748 75.3002 748H142.9C155.2 748 165.9 738.7 168.5 725.7L176.2 688H721.8L729.5 725.7C732.2 738.7 742.8 748 755.1 748H822.7C837.2 748 849 735.3 849 719.6V371.4C849 368 848.4 364.6 847.2 361.4L832.7 321.4L893 286.2C894.815 285.152 896.147 283.433 896.708 281.413C897.269 279.394 897.015 277.234 896 275.4V275.4ZM201 483C178.9 483 161 465.1 161 443C161 420.9 178.9 403 201 403C223.1 403 241 420.9 241 443C241 465.1 223.1 483 201 483ZM589 558C589 562.4 585.4 566 581 566H317C312.6 566 309 562.4 309 558V474C309 469.6 312.6 466 317 466H357C361.4 466 365 469.6 365 474V510H533V474C533 469.6 536.6 466 541 466H581C585.4 466 589 469.6 589 474V558ZM697 483C674.9 483 657 465.1 657 443C657 420.9 674.9 403 697 403C719.1 403 737 420.9 737 443C737 465.1 719.1 483 697 483ZM157 280L229.7 80.1001L230.2 78.8001L230.6 77.5001C231.7 74.2001 234.7 72.0001 238.2 72.0001H665.8L741.2 280H157Z" fill="#867A99"/>
</svg>
