<svg width="140" height="25" viewBox="0 0 140 25" fill="none" xmlns="http://www.w3.org/2000/svg">
<path d="M16.408 1.664V5.28H10.456V24H5.976V5.28H0.024V1.664H16.408ZM36.4128 6.272V24H31.9008V21.76C31.3248 22.528 30.5674 23.136 29.6288 23.584C28.7114 24.0107 27.7088 24.224 26.6208 24.224C25.2341 24.224 24.0074 23.936 22.9408 23.36C21.8741 22.7627 21.0314 21.8987 20.4128 20.768C19.8154 19.616 19.5168 18.2507 19.5168 16.672V6.272H23.9968V16.032C23.9968 17.44 24.3488 18.528 25.0528 19.296C25.7568 20.0427 26.7168 20.416 27.9328 20.416C29.1701 20.416 30.1408 20.0427 30.8448 19.296C31.5488 18.528 31.9008 17.44 31.9008 16.032V6.272H36.4128ZM50.657 6.016C52.769 6.016 54.4757 6.688 55.777 8.032C57.0783 9.35467 57.729 11.2107 57.729 13.6V24H53.249V14.208C53.249 12.8 52.897 11.7227 52.193 10.976C51.489 10.208 50.529 9.824 49.313 9.824C48.0757 9.824 47.0943 10.208 46.369 10.976C45.665 11.7227 45.313 12.8 45.313 14.208V24H40.833V6.272H45.313V8.48C45.9103 7.712 46.6677 7.11467 47.585 6.688C48.5237 6.24 49.5477 6.016 50.657 6.016ZM60.8372 15.072C60.8372 13.28 61.1892 11.6907 61.8932 10.304C62.6186 8.91733 63.5893 7.85067 64.8053 7.104C66.0426 6.35733 67.4186 5.984 68.9333 5.984C70.2559 5.984 71.4079 6.25067 72.3893 6.784C73.3919 7.31733 74.1919 7.98933 74.7893 8.8V6.272H79.3013V24H74.7893V21.408C74.2133 22.24 73.4133 22.9333 72.3893 23.488C71.3866 24.0213 70.2239 24.288 68.9013 24.288C67.4079 24.288 66.0426 23.904 64.8053 23.136C63.5893 22.368 62.6186 21.2907 61.8932 19.904C61.1892 18.496 60.8372 16.8853 60.8372 15.072ZM74.7893 15.136C74.7893 14.048 74.5759 13.12 74.1493 12.352C73.7226 11.5627 73.1466 10.9653 72.4213 10.56C71.6959 10.1333 70.9173 9.92 70.0853 9.92C69.2533 9.92 68.4853 10.1227 67.7812 10.528C67.0773 10.9333 66.5013 11.5307 66.0533 12.32C65.6266 13.088 65.4133 14.0053 65.4133 15.072C65.4133 16.1387 65.6266 17.0773 66.0533 17.888C66.5013 18.6773 67.0773 19.2853 67.7812 19.712C68.5066 20.1387 69.2746 20.352 70.0853 20.352C70.9173 20.352 71.6959 20.1493 72.4213 19.744C73.1466 19.3173 73.7226 18.72 74.1493 17.952C74.5759 17.1627 74.7893 16.224 74.7893 15.136ZM82.5247 15.072C82.5247 13.28 82.8767 11.6907 83.5807 10.304C84.3061 8.91733 85.2874 7.85067 86.5248 7.104C87.7621 6.35733 89.1381 5.984 90.6528 5.984C91.8048 5.984 92.9034 6.24 93.9488 6.752C94.9941 7.24267 95.8261 7.904 96.4448 8.736V0.32H100.989V24H96.4448V21.376C95.8901 22.2507 95.1114 22.9547 94.1088 23.488C93.1061 24.0213 91.9434 24.288 90.6208 24.288C89.1274 24.288 87.7621 23.904 86.5248 23.136C85.2874 22.368 84.3061 21.2907 83.5807 19.904C82.8767 18.496 82.5247 16.8853 82.5247 15.072ZM96.4768 15.136C96.4768 14.048 96.2634 13.12 95.8368 12.352C95.4101 11.5627 94.8341 10.9653 94.1088 10.56C93.3834 10.1333 92.6048 9.92 91.7728 9.92C90.9408 9.92 90.1728 10.1227 89.4688 10.528C88.7648 10.9333 88.1888 11.5307 87.7408 12.32C87.3141 13.088 87.1008 14.0053 87.1008 15.072C87.1008 16.1387 87.3141 17.0773 87.7408 17.888C88.1888 18.6773 88.7648 19.2853 89.4688 19.712C90.1941 20.1387 90.9621 20.352 91.7728 20.352C92.6048 20.352 93.3834 20.1493 94.1088 19.744C94.8341 19.3173 95.4101 18.72 95.8368 17.952C96.2634 17.1627 96.4768 16.224 96.4768 15.136ZM113.236 24.288C111.53 24.288 109.994 23.9147 108.628 23.168C107.263 22.4 106.186 21.3227 105.396 19.936C104.628 18.5493 104.244 16.9493 104.244 15.136C104.244 13.3227 104.639 11.7227 105.428 10.336C106.239 8.94933 107.338 7.88267 108.724 7.136C110.111 6.368 111.658 5.984 113.364 5.984C115.071 5.984 116.618 6.368 118.004 7.136C119.391 7.88267 120.479 8.94933 121.268 10.336C122.079 11.7227 122.484 13.3227 122.484 15.136C122.484 16.9493 122.068 18.5493 121.236 19.936C120.426 21.3227 119.316 22.4 117.908 23.168C116.522 23.9147 114.964 24.288 113.236 24.288ZM113.236 20.384C114.047 20.384 114.804 20.192 115.508 19.808C116.234 19.4027 116.81 18.8053 117.236 18.016C117.663 17.2267 117.876 16.2667 117.876 15.136C117.876 13.4507 117.428 12.16 116.532 11.264C115.658 10.3467 114.58 9.888 113.3 9.888C112.02 9.888 110.943 10.3467 110.068 11.264C109.215 12.16 108.788 13.4507 108.788 15.136C108.788 16.8213 109.204 18.1227 110.036 19.04C110.89 19.936 111.956 20.384 113.236 20.384ZM132.555 24.288C131.104 24.288 129.803 24.032 128.651 23.52C127.499 22.9867 126.581 22.272 125.899 21.376C125.237 20.48 124.875 19.488 124.811 18.4H129.323C129.408 19.0827 129.739 19.648 130.315 20.096C130.912 20.544 131.648 20.768 132.523 20.768C133.376 20.768 134.037 20.5973 134.507 20.256C134.997 19.9147 135.243 19.4773 135.243 18.944C135.243 18.368 134.944 17.9413 134.347 17.664C133.771 17.3653 132.843 17.0453 131.562 16.704C130.24 16.384 129.152 16.0533 128.299 15.712C127.467 15.3707 126.741 14.848 126.123 14.144C125.525 13.44 125.227 12.4907 125.227 11.296C125.227 10.3147 125.504 9.41867 126.059 8.608C126.635 7.79733 127.445 7.15733 128.491 6.688C129.557 6.21867 130.805 5.984 132.235 5.984C134.347 5.984 136.032 6.51733 137.291 7.584C138.549 8.62933 139.243 10.048 139.371 11.84H135.083C135.019 11.136 134.72 10.5813 134.187 10.176C133.675 9.74933 132.981 9.536 132.107 9.536C131.296 9.536 130.667 9.68533 130.219 9.984C129.792 10.2827 129.579 10.6987 129.579 11.232C129.579 11.8293 129.877 12.288 130.475 12.608C131.072 12.9067 132 13.216 133.259 13.536C134.539 13.856 135.595 14.1867 136.427 14.528C137.259 14.8693 137.973 15.4027 138.571 16.128C139.189 16.832 139.509 17.7707 139.531 18.944C139.531 19.968 139.243 20.8853 138.667 21.696C138.112 22.5067 137.301 23.1467 136.235 23.616C135.189 24.064 133.963 24.288 132.555 24.288Z" fill="url(#paint0_linear_7_102)"/>
<defs>
<linearGradient id="paint0_linear_7_102" x1="70" y1="-11" x2="70" y2="37" gradientUnits="userSpaceOnUse">
<stop stop-color="#2400FF"/>
<stop offset="1" stop-color="#5E1CCA"/>
</linearGradient>
</defs>
</svg>
